<svg width="267" height="25" viewBox="0 0 267 25" fill="none" xmlns="http://www.w3.org/2000/svg">
<path d="M13.65 10.68L9.39 21H8.49L0 0.0599996H5.88L11.49 13.92L13.23 9.66L9.36 0.0599996H15.24C17.1 4.68 18.96 9.3 20.85 13.92C23.82 6.69 19.83 4.23 21.54 0.0599996H27.42L18.75 21H17.85L13.65 10.68ZM31.6479 12.9C31.4979 17.52 33.6279 22.38 37.5279 20.07C38.5779 19.44 39.2679 18.39 39.7479 17.31L40.4679 17.88C38.8779 20.37 37.4079 21.33 34.3779 21.33C23.6679 21.33 23.6679 5.43 34.3779 5.43C38.6979 5.43 41.4579 8.85 41.4579 12.9H37.3479H31.6479ZM37.5879 12.06C37.5879 9.12 36.6579 7.11 35.6379 6.36C35.3379 6.15 34.6779 5.76 34.7079 6.03C35.0679 8.76 30.9579 9.42 30.8379 10.83C30.7779 11.52 31.4979 12.06 32.0979 12.06H37.5879ZM48.8843 10.02C50.3843 10.02 51.3443 10.32 52.1843 11.1V11.04C52.1843 9.87 52.1543 7.95 51.4643 6.87C51.0143 6.15 50.3543 5.88 49.7843 5.94C47.8343 6.27 49.5143 8.43 47.5943 9.54L44.5343 8.82C44.7443 8.37 44.9543 7.95 45.2243 7.56C46.3943 5.79 48.4343 5.16 50.5643 5.19C53.5643 5.22 56.7443 6.9 57.6143 9.54C57.9143 10.38 58.0643 11.58 58.0643 13.08V21H52.2143V20.28C51.3743 21.09 50.4143 21.42 48.8843 21.42C45.0743 21.42 43.1543 18.57 43.1543 15.72C43.1543 12.87 45.0743 10.02 48.8843 10.02ZM52.1843 12.12C51.8543 11.67 51.5243 11.37 51.1343 11.13C45.6743 7.92 45.6743 23.55 51.1343 20.34C51.5243 20.13 51.8843 19.8 52.2143 19.32V14.01C52.2143 13.23 52.1843 12.75 52.1843 12.12ZM67.152 2.82V5.49H70.812V6.33H67.152V15.66C67.182 20.76 71.172 21.18 72.402 17.07H73.092C72.852 17.79 72.552 18.45 72.162 18.99C71.022 20.67 69.252 21.39 67.452 21.39C63.612 21.39 61.272 19.23 61.272 15.66C61.272 12.66 64.962 6.33 61.272 6.33H59.502V5.49H61.272V2.82H67.152ZM80.9093 7.11C81.9593 6.03 83.3693 5.37 84.8693 5.13C86.7893 4.83 88.8593 5.25 90.4793 6.45C95.3393 10.02 89.7593 15.57 92.8793 21H86.8793C84.9593 13.83 90.0893 12.09 88.2593 8.37C87.2093 6.24 85.5593 5.64 83.9993 6C82.8293 6.3 81.6893 7.14 80.9093 8.31V21H75.0293V0.0599996H80.9093V7.11ZM101.081 12.9C100.931 17.52 103.061 22.38 106.961 20.07C108.011 19.44 108.701 18.39 109.181 17.31L109.901 17.88C108.311 20.37 106.841 21.33 103.811 21.33C93.1015 21.33 93.1015 5.43 103.811 5.43C108.131 5.43 110.891 8.85 110.891 12.9H106.781H101.081ZM107.021 12.06C107.021 9.12 106.091 7.11 105.071 6.36C104.771 6.15 104.111 5.76 104.141 6.03C104.501 8.76 100.391 9.42 100.271 10.83C100.211 11.52 100.931 12.06 101.531 12.06H107.021ZM119.171 10.17V21H113.291V5.49H119.171V8.46C119.681 7.32 120.521 6.45 121.541 5.91C122.321 5.46 123.581 5.19 124.661 5.31C127.121 5.58 126.791 8.34 127.751 8.61L125.861 10.86C123.521 9.51 125.051 5.64 122.771 6.15C121.961 6.33 121.001 7.14 120.521 7.71C119.921 8.4 119.441 9.27 119.171 10.17Z" fill="#437AFF"/>
<path d="M146.066 21H140.186V0.0599996H153.326V4.77C149.396 4.77 152.576 0.899999 146.066 0.899999V10.11H152.936V10.95H146.066V21ZM163.385 5.37C169.115 5.37 171.995 9.36 171.995 13.38C171.995 17.37 169.115 21.36 163.385 21.36C157.625 21.36 154.745 17.37 154.745 13.38C154.745 9.36 157.625 5.37 163.385 5.37ZM163.385 6.12C159.545 6.12 162.665 10.56 159.695 12.51C153.815 16.35 161.375 21.81 164.285 20.4C167.855 18.6 167.555 6.09 163.385 6.12ZM180.314 10.17V21H174.434V5.49H180.314V8.46C180.824 7.32 181.664 6.45 182.684 5.91C183.464 5.46 184.724 5.19 185.804 5.31C188.264 5.58 187.934 8.34 188.894 8.61L187.004 10.86C184.664 9.51 186.194 5.64 183.914 6.15C183.104 6.33 182.144 7.14 181.664 7.71C181.064 8.4 180.584 9.27 180.314 10.17ZM195.388 12.9C195.238 17.52 197.368 22.38 201.268 20.07C202.318 19.44 203.008 18.39 203.488 17.31L204.208 17.88C202.618 20.37 201.148 21.33 198.118 21.33C187.408 21.33 187.408 5.43 198.118 5.43C202.438 5.43 205.198 8.85 205.198 12.9H201.088H195.388ZM201.328 12.06C201.328 9.12 200.398 7.11 199.378 6.36C199.078 6.15 198.418 5.76 198.448 6.03C198.808 8.76 194.698 9.42 194.578 10.83C194.518 11.52 195.238 12.06 195.838 12.06H201.328ZM215.608 5.46C217.138 5.46 218.248 5.7 219.148 6.21C220.258 6.84 221.098 8.64 221.728 8.91L219.208 10.53C217.258 8.58 218.848 6.12 216.928 6.15C211.498 6.27 212.008 24.12 218.788 20.1C219.838 19.47 220.528 18.42 221.008 17.34L221.728 17.91C220.138 20.4 218.668 21.36 215.608 21.36C204.928 21.36 204.928 5.46 215.608 5.46ZM229.382 10.02C230.882 10.02 231.842 10.32 232.682 11.1V11.04C232.682 9.87 232.652 7.95 231.962 6.87C231.512 6.15 230.852 5.88 230.282 5.94C228.332 6.27 230.012 8.43 228.092 9.54L225.032 8.82C225.242 8.37 225.452 7.95 225.722 7.56C226.892 5.79 228.932 5.16 231.062 5.19C234.062 5.22 237.242 6.9 238.112 9.54C238.412 10.38 238.562 11.58 238.562 13.08V21H232.712V20.28C231.872 21.09 230.912 21.42 229.382 21.42C225.572 21.42 223.652 18.57 223.652 15.72C223.652 12.87 225.572 10.02 229.382 10.02ZM232.682 12.12C232.352 11.67 232.022 11.37 231.632 11.13C226.172 7.92 226.172 23.55 231.632 20.34C232.022 20.13 232.382 19.8 232.712 19.32V14.01C232.712 13.23 232.682 12.75 232.682 12.12ZM240.967 18.36L243.007 16.47C245.677 17.94 244.687 20.79 246.097 20.79C247.267 20.79 247.897 20.25 248.197 19.35C249.607 14.88 241.237 15.48 241.237 10.38C241.237 8.88 241.777 7.53 242.827 6.6C243.847 5.64 245.197 5.16 246.847 5.16C247.507 5.16 248.107 5.25 248.647 5.4C250.687 5.97 251.107 7.92 251.947 8.16L249.937 9.9C247.507 8.52 248.557 5.82 247.027 5.82C244.717 5.82 244.927 8.64 246.007 9.81C247.987 11.88 251.497 12.03 252.517 15.33C252.967 16.77 252.277 18.63 250.717 19.98C249.187 21.3 246.817 21.72 244.747 21.24C241.957 20.58 241.747 18.45 240.967 18.36ZM260.98 2.82V5.49H264.64V6.33H260.98V15.66C261.01 20.76 265 21.18 266.23 17.07H266.92C266.68 17.79 266.38 18.45 265.99 18.99C264.85 20.67 263.08 21.39 261.28 21.39C257.44 21.39 255.1 19.23 255.1 15.66C255.1 12.66 258.79 6.33 255.1 6.33H253.33V5.49H255.1V2.82H260.98Z" fill="#333333"/>
</svg>
